<svg xmlns="http://www.w3.org/2000/svg" viewBox="0 0 100 100"><defs><clipPath id="clip-path_1775_1722511827676"><rect width="100" height="100" x="0" y="0" fill="none" rx="10" ry="10"/></clipPath></defs><g clip-path="url(#clip-path_1775_1722511827676)"><rect width="100" height="100" x="0" y="0" fill="#19B7CC"/><polygon points="50 25 71.7 37.5 71.7 62.5 50 75 28.3 62.5 28.3 37.5" transform="translate(27.8 -5.6)" transformOrigin="center" style="fill:#fff;fill-opacity:.5"/><polygon points="50 25 71.7 37.5 71.7 62.5 50 75 28.3 62.5 28.3 37.5" transform="translate(5.6 -16.7)" transformOrigin="center" style="fill:#fff;fill-opacity:.5"/><polygon points="50 25 71.7 37.5 71.7 62.5 50 75 28.3 62.5 28.3 37.5" transform="translate(5.6 16.7)" transformOrigin="center" style="fill:#fff;fill-opacity:.5"/><polygon points="50 25 71.7 37.5 71.7 62.5 50 75 28.3 62.5 28.3 37.5" transform="translate(-38.9 -5.6)" transformOrigin="center" style="fill:#fff;fill-opacity:.5"/><polygon points="50 25 71.7 37.5 71.7 62.5 50 75 28.3 62.5 28.3 37.5" transform="translate(-38.9 16.7)" transformOrigin="center" style="fill:#fff;fill-opacity:.5"/><polygon points="50 25 71.7 37.5 71.7 62.5 50 75 28.3 62.5 28.3 37.5" transform="translate(38.9 -27.8)" transformOrigin="center" style="fill:#fff;fill-opacity:.5"/><polygon points="50 25 71.7 37.5 71.7 62.5 50 75 28.3 62.5 28.3 37.5" transform="translate(-38.9 5.6)" transformOrigin="center" style="fill:#fff;fill-opacity:.5"/><polygon points="50 25 71.7 37.5 71.7 62.5 50 75 28.3 62.5 28.3 37.5" transform="translate(5.6 5.6)" transformOrigin="center" style="fill:#fff;fill-opacity:.5"/></g></svg>